<?xml version="1.0" encoding="utf-8"?>
<!-- Generator: Adobe Illustrator 26.0.3, SVG Export Plug-In . SVG Version: 6.00 Build 0)  -->
<svg version="1.1" id="Layer_1" xmlns="http://www.w3.org/2000/svg" xmlns:xlink="http://www.w3.org/1999/xlink" x="0px" y="0px"
	 viewBox="0 0 14 14" style="enable-background:new 0 0 14 14;" xml:space="preserve">
<style type="text/css">
	.st0{fill:#FFFFFF;}
</style>
<path class="st0" d="M8.2,7l3.6-3.6C11.9,3.3,12,3.1,12,2.9s-0.1-0.4-0.2-0.6C11.6,2.1,11.4,2,11.1,2c-0.2,0-0.4,0.1-0.6,0.2L7,5.8
	L3.4,2.3C3.3,2.1,3.1,2,2.9,2C2.6,2,2.4,2.1,2.3,2.3C2.1,2.4,2,2.6,2,2.9s0.1,0.4,0.2,0.6L5.8,7l-3.6,3.6c-0.1,0.1-0.1,0.2-0.2,0.3
	C2,10.9,2,11,2,11.1c0,0.1,0,0.2,0.1,0.3c0,0.1,0.1,0.2,0.2,0.3c0.1,0.1,0.2,0.1,0.3,0.2C2.6,12,2.7,12,2.9,12c0.1,0,0.2,0,0.3-0.1
	c0.1,0,0.2-0.1,0.3-0.2L7,8.2l3.6,3.6c0.1,0.1,0.2,0.1,0.3,0.2c0.1,0,0.2,0.1,0.3,0.1c0.1,0,0.2,0,0.3-0.1c0.1,0,0.2-0.1,0.3-0.2
	c0.1-0.1,0.1-0.2,0.2-0.3c0-0.1,0.1-0.2,0.1-0.3c0-0.1,0-0.2-0.1-0.3c0-0.1-0.1-0.2-0.2-0.3L8.2,7z"/>
</svg>
