<?xml version="1.0" encoding="utf-8"?>
<!-- Generator: Adobe Illustrator 26.0.3, SVG Export Plug-In . SVG Version: 6.00 Build 0)  -->
<svg version="1.1" id="Layer_1" xmlns="http://www.w3.org/2000/svg" xmlns:xlink="http://www.w3.org/1999/xlink" x="0px" y="0px"
	 viewBox="0 0 24 24" style="enable-background:new 0 0 24 24;" xml:space="preserve">
<style type="text/css">
	.st0{fill:#6659EE;}
</style>
<g>
	<path class="st0" d="M4,7.8v14.9C4,22.9,4.1,23,4.2,23h15.5c0.2,0,0.3-0.1,0.3-0.3V7.8H4z M16.6,17.3l-1.5,1.6
		c-0.2,0.2-0.6,0.3-0.9,0l-1.7-1.6L10.9,19c-0.2,0.2-0.6,0.3-0.9,0l-1.6-1.5c-0.2-0.2-0.3-0.6,0-0.9l1.6-1.7l-1.7-1.6
		c-0.2-0.2-0.3-0.6,0-0.9L9.7,11c0.2-0.2,0.6-0.3,0.9,0l1.7,1.6l1.6-1.7c0.2-0.2,0.6-0.3,0.9,0l1.6,1.5c0.2,0.2,0.3,0.6,0,0.9
		L14.8,15l1.7,1.6C16.8,16.7,16.8,17.1,16.6,17.3z"/>
	<path class="st0" d="M22.6,3.5V6H1.4V3.5h6.8V1.1L8.3,1h7.4c0.1,0,0.1,0.1,0.1,0.1v2.4H22.6z"/>
</g>
</svg>
