<?xml version="1.0" encoding="utf-8"?>
<!-- Generator: Adobe Illustrator 26.0.3, SVG Export Plug-In . SVG Version: 6.00 Build 0)  -->
<svg version="1.1" id="Layer_1" xmlns="http://www.w3.org/2000/svg" xmlns:xlink="http://www.w3.org/1999/xlink" x="0px" y="0px"
	 viewBox="0 0 24 24" style="enable-background:new 0 0 24 24;" xml:space="preserve">
<style type="text/css">
	.st0{fill:#40484A;}
</style>
<path class="st0" d="M22.2,19.9c-1-1-2-2-2.9-3c-0.3-0.3-0.6-0.6-1.1-0.4c-0.1,0-0.3-0.1-0.4-0.2c-0.3-0.3-0.7-0.7-1-1
	c-0.1-0.1-0.2-0.2-0.2-0.3c-0.4,0.5-0.8,0.9-1.3,1.3c0.2,0,0.3,0,0.5,0.2c0.2,0.2,0.4,0.4,0.6,0.6c0.3,0.3,0.5,0.5,0.4,1
	c-0.1,0.2,0.1,0.5,0.3,0.7c1.1,1.2,2.3,2.3,3.4,3.4c0.2,0.2,0.4,0.3,0.6,0.4h0.8c0.5-0.2,0.8-0.6,1.1-1v-0.7
	C22.8,20.6,22.5,20.2,22.2,19.9z M18.2,9.6c0-4.6-3.7-8.2-8.2-8.2C5.4,1.3,1.7,5,1.7,9.6c0,4.6,3.7,8.2,8.2,8.2
	C14.5,17.8,18.2,14.1,18.2,9.6z M10,16c-3.4,0-6.4-2.6-6.4-6.4c0-3.7,2.8-6.4,6.5-6.4c3.9,0,6.3,3.1,6.3,6.5
	C16.4,13.1,13.5,16,10,16z"/>
<path class="st0" d="M9.9,12.8c-0.5,0-1.1,0-1.6,0c-0.5,0-0.6-0.3-0.5-0.7c0.3-0.9,1.1-1.5,2-1.5c0.9,0,1.7,0.6,2.1,1.4
	c0.2,0.6,0,0.8-0.5,0.8C10.9,12.9,10.4,12.8,9.9,12.8C9.9,12.8,9.9,12.8,9.9,12.8z"/>
<path class="st0" d="M6.8,9.8c-0.5,0-0.9-0.4-0.9-0.9c0-0.5,0.4-0.9,0.9-0.9c0.5,0,0.9,0.4,0.9,0.9C7.7,9.4,7.3,9.8,6.8,9.8z"/>
<path class="st0" d="M14.1,8.8c0,0.5-0.4,0.9-0.9,0.9c-0.5,0-0.9-0.4-0.9-0.9c0-0.5,0.4-0.9,0.9-0.9C13.6,7.9,14.1,8.3,14.1,8.8z"/>
</svg>
