<?xml version="1.0" encoding="utf-8"?>
<!-- Generator: Adobe Illustrator 26.0.3, SVG Export Plug-In . SVG Version: 6.00 Build 0)  -->
<svg version="1.1" id="Layer_1" xmlns="http://www.w3.org/2000/svg" xmlns:xlink="http://www.w3.org/1999/xlink" x="0px" y="0px"
	 viewBox="0 0 24 24" style="enable-background:new 0 0 24 24;" xml:space="preserve">
<style type="text/css">
	.st0{fill:#F9F9F9;}
	.st1{fill:#D8D8D8;}
</style>
<path class="st0" d="M12,24L12,24C5.4,24,0,18.7,0,12v0C0,5.4,5.4,0,12,0h0c6.6,0,12,5.4,12,12v0C24,18.7,18.6,24,12,24z"/>
<g>
	<path class="st1" d="M3.3,12.7c0.1,0,0.1,0,0.2,0c1.7,0,3.4,0,5.1,0c0.1,0,0.1,0,0.2,0.1c0.4,1.4,1.3,2.2,2.7,2.5
		c1.7,0.3,3.4-0.8,3.8-2.5c0-0.1,0.1-0.2,0.2-0.2c1.7,0,3.3,0,5,0c0,0,0.1,0,0.2,0c-0.3,2.7-1.6,4.9-3.8,6.5c-2.8,1.9-6.6,2-9.5,0.1
		c-1.5-0.9-2.5-2.2-3.3-3.7C3.6,14.7,3.4,13.7,3.3,12.7z"/>
	<path class="st1" d="M18,11.3c-0.8,0-1.7,0-2.5,0c-0.1,0-0.2,0-0.2-0.2c-0.4-1.3-1.5-2.3-2.9-2.5c-1.7-0.2-3.2,0.8-3.7,2.5
		c0,0.2,0,0.2-0.2,0.2c-1.6,0-3.3,0-4.9,0c-0.2,0-0.2,0-0.2-0.2c0.3-3.1,2.2-5.6,5-6.9c0.9-0.4,1.7-0.6,2.7-0.7
		c2.5-0.2,4.6,0.4,6.5,2c1.5,1.3,2.5,2.9,2.9,4.8c0.1,0.3,0.1,0.6,0.1,0.9c0,0.1,0,0.1-0.1,0.1C19.7,11.3,18.9,11.3,18,11.3
		C18,11.3,18,11.3,18,11.3z"/>
	<path class="st1" d="M14,12c0,1.1-0.9,2-2,2c-1.1,0-2-0.9-2-2c0-1.1,0.9-2,2-2C13.1,10,14,10.9,14,12z"/>
</g>
</svg>
