<?xml version="1.0" encoding="utf-8"?>
<!-- Generator: Adobe Illustrator 26.0.3, SVG Export Plug-In . SVG Version: 6.00 Build 0)  -->
<svg version="1.1" id="Layer_1" xmlns="http://www.w3.org/2000/svg" xmlns:xlink="http://www.w3.org/1999/xlink" x="0px" y="0px"
	 viewBox="0 0 24 24" style="enable-background:new 0 0 24 24;" xml:space="preserve">
<style type="text/css">
	.st0{fill:#FFFFFF;}
</style>
<g>
	<path class="st0" d="M17,1c0.7,0,1.3,0,1.9,0c0.1,0,0.2,0.1,0.2,0.1c1.3,1.2,2.5,2.5,3.7,3.7C23,5,23,5.1,23,5.3c0,2.1,0,4.2,0,6.2
		c0,3.1,0,6.2,0,9.4c0,1-0.6,1.8-1.5,2C21.3,23,21.1,23,20.9,23C15,23,9.1,23,3.2,23C1.9,23,1,22.2,1,20.9C1,15,1,9,1,3.1
		C1,1.8,1.8,1,3.1,1C4.1,1,5,1,5.9,1c0,0,0.1,0,0.1,0c0,0.1,0,0.2,0,0.3C6,3.2,6,5,6,6.8C6,7.6,6.4,8,7.2,8c2.9,0,5.7,0,8.6,0
		C16.6,8,17,7.6,17,6.8c0-1.8,0-3.6,0-5.4C17,1.3,17,1.2,17,1z M5,21c4.7,0,9.3,0,14,0c0-0.1,0-0.2,0-0.3c0-1.8,0-3.7,0-5.5
		c0-1.4-0.8-2.2-2.2-2.2c-3.2,0-6.4,0-9.6,0C5.8,13,5,13.8,5,15.2c0,1.8,0,3.6,0,5.5C5,20.8,5,20.9,5,21z"/>
	<path class="st0" d="M12.9,6c0-1.7,0-3.3,0-4.9c0.7,0,1.3,0,2,0c0,1.6,0,3.3,0,4.9C14.3,6,13.6,6,12.9,6z"/>
</g>
</svg>
